# WaveFront *.obj file (generated by Autodesk ATF)

mtllib bc40f781-fb59-47b1-aee0-1a8b305f91e6.mtl

g Tent

v 59.499999 79.499999 25.500000
v 59.499999 79.499999 0.000000
v 59.499999 79.999999 0.000000
v 59.499999 79.999999 25.500000
v 84.499999 78.999999 0.000000
v 84.499999 54.499999 0.000000
v 84.499999 54.499999 25.500000
v 84.499999 79.499999 25.500000
v 84.499999 79.999999 25.500000
v 84.499999 79.999999 0.000000
v 84.499999 79.499999 0.000000
v 84.999999 79.999999 0.000000
v 84.999999 53.999999 0.000000
v 58.999999 53.999999 0.000000
v 58.999999 54.499999 0.000000
v 72.324994 66.675002 29.900001
v 72.324994 67.324996 29.900001
v 71.675003 67.324996 29.900001
v 71.675003 66.675002 29.900001
v 58.999999 79.999999 26.000000
v 58.999999 53.999999 26.000000
v 84.999999 79.999999 26.000000
v 84.999999 53.999999 26.000000
v 58.999999 54.499999 25.500000
v 58.999999 79.499999 25.500000
v 58.999999 79.499999 0.000000
v 58.999999 79.999999 0.000000
vt -0.000000 1.270000 0.000000
vt -64.769999 1.270000 0.000000
vt 0.000000 0.000000 0.000000
vt -64.769999 0.000000 0.000000
vt -32.385000 -31.750000 0.000000
vt 32.385000 -31.750000 0.000000
vt -32.385000 30.480000 0.000000
vt 32.385000 31.750000 0.000000
vt -32.385000 31.750000 0.000000
vt 32.384999 33.020000 0.000000
vt -32.385000 33.020000 0.000000
vt -31.750000 33.020000 0.000000
vt -33.020000 33.020000 0.000000
vt -31.750000 31.750000 0.000000
vt -31.750000 30.480000 0.000000
vt -33.020000 -33.020000 0.000000
vt -31.750000 -31.750000 0.000000
vt 33.020000 -33.020000 0.000000
vt 33.020000 -31.750000 0.000000
vt -34.099481 32.194507 0.000000
vt -32.448504 32.194507 0.000000
vt -34.099481 33.845492 0.000000
vt -32.448504 33.845492 0.000000
vt -33.684053 32.194507 0.000000
vt -0.000000 0.000000 0.000000
vt -33.684053 33.845492 0.000000
vt -0.000000 66.039999 0.000000
vt -0.863685 32.194511 0.000000
vt -0.863685 33.845488 0.000000
vt -34.547735 0.000000 0.000000
vt -34.547735 66.039999 0.000000
vt -0.863681 32.194507 0.000000
vt -0.863681 33.845492 0.000000
vt -34.547735 0.000000 0.000000
vt -34.547735 66.039999 0.000000
vt 66.039999 66.039999 0.000000
vt 0.000000 66.039999 0.000000
vt 66.039999 0.000000 0.000000
vt 0.000000 0.000000 0.000000
vt -33.684050 32.194511 0.000000
vt -0.000000 0.000000 0.000000
vt -33.684050 33.845488 0.000000
vt -0.000000 66.039999 0.000000
vt 1.270000 64.769999 0.000000
vt 0.000000 64.770000 0.000000
vt -0.000000 1.270000 0.000000
vt -63.499999 64.770000 0.000000
vt -63.499999 0.000000 0.000000
vt 0.000000 0.000000 0.000000
vt 1.270000 1.270000 0.000000
vt -0.000000 1.270000 0.000000
vt -64.769999 1.270000 0.000000
vt -0.000000 0.000000 0.000000
vt -64.770000 0.000000 0.000000
vt -64.770000 0.000000 0.000000
vt 0.000000 0.000000 0.000000
vt -64.770000 64.770000 0.000000
vt 0.000000 64.770000 0.000000
vt 31.750000 31.749999 0.000000
vt 33.020000 31.749999 0.000000
vt 31.750000 33.019999 0.000000
vt 33.020000 33.019999 0.000000
vt 66.039999 66.039999 0.000000
vt 0.000000 66.039999 0.000000
vt 66.039999 0.000000 0.000000
vt 0.000000 0.000000 0.000000
vt 66.039999 0.000000 0.000000
vt 66.039999 66.039999 0.000000
vt 64.769999 64.770000 0.000000
vt 0.000000 66.039999 0.000000
vt 1.270000 64.770000 0.000000
vt 0.000000 0.000000 0.000000
vt 1.270000 0.000000 0.000000
vt 64.769999 0.000000 0.000000
vt 64.769999 0.000000 0.000000
vt 66.039999 0.000000 0.000000
vt 64.769999 64.769999 0.000000
vt 66.039999 66.039999 0.000000
vt 0.000000 66.039999 0.000000
vt 1.270000 64.769999 0.000000
vt 0.000000 0.000000 0.000000
vt 1.270000 0.000000 0.000000
vn 2.540000 0.000000 0.000000
vn 2.540000 0.000000 0.000000
vn 2.540000 0.000000 0.000000
vn 2.540000 0.000000 0.000000
vn -2.540000 0.000000 0.000000
vn -2.540000 0.000000 0.000000
vn -2.540000 0.000000 0.000000
vn -2.540000 0.000000 0.000000
vn -2.540000 0.000000 0.000000
vn -2.540000 0.000000 0.000000
vn -2.540000 0.000000 0.000000
vn 0.000000 0.000000 -2.540000
vn 0.000000 0.000000 -2.540000
vn 0.000000 0.000000 -2.540000
vn 0.000000 0.000000 -2.540000
vn 0.000000 0.000000 -2.540000
vn 0.000000 0.000000 -2.540000
vn 0.000000 0.000000 -2.540000
vn 0.000000 0.000000 -2.540000
vn 0.000000 0.000000 2.540000
vn 0.000000 0.000000 2.540000
vn 0.000000 0.000000 2.540000
vn 0.000000 0.000000 2.540000
vn -0.746978 0.000000 2.427679
vn -0.746978 0.000000 2.427679
vn -0.746978 0.000000 2.427679
vn -0.746978 0.000000 2.427679
vn 0.000000 0.746978 2.427679
vn 0.000000 0.746978 2.427679
vn 0.000000 0.746978 2.427679
vn 0.000000 0.746978 2.427679
vn 0.746978 0.000000 2.427679
vn 0.746978 0.000000 2.427679
vn 0.746978 0.000000 2.427679
vn 0.746978 0.000000 2.427679
vn 2.540000 0.000000 0.000000
vn 2.540000 0.000000 0.000000
vn 2.540000 0.000000 0.000000
vn 2.540000 0.000000 0.000000
vn 0.000000 -0.746978 2.427679
vn 0.000000 -0.746978 2.427679
vn 0.000000 -0.746978 2.427679
vn 0.000000 -0.746978 2.427679
vn 0.000000 0.000000 -2.540000
vn 0.000000 0.000000 -2.540000
vn 0.000000 0.000000 -2.540000
vn 0.000000 0.000000 -2.540000
vn 0.000000 0.000000 -2.540000
vn 0.000000 0.000000 -2.540000
vn 0.000000 0.000000 -2.540000
vn 0.000000 -2.540000 0.000000
vn 0.000000 -2.540000 0.000000
vn 0.000000 -2.540000 0.000000
vn 0.000000 -2.540000 0.000000
vn -0.000000 2.540000 -0.000000
vn -0.000000 2.540000 -0.000000
vn -0.000000 2.540000 -0.000000
vn -0.000000 2.540000 -0.000000
vn 0.000000 0.000000 -2.540000
vn 0.000000 0.000000 -2.540000
vn 0.000000 0.000000 -2.540000
vn 0.000000 0.000000 -2.540000
vn 0.000000 -2.540000 0.000000
vn 0.000000 -2.540000 0.000000
vn 0.000000 -2.540000 0.000000
vn 0.000000 -2.540000 0.000000
vn -2.540000 0.000000 0.000000
vn -2.540000 0.000000 0.000000
vn -2.540000 0.000000 0.000000
vn -2.540000 0.000000 0.000000
vn -2.540000 0.000000 0.000000
vn -2.540000 0.000000 0.000000
vn -2.540000 0.000000 0.000000
vn -2.540000 0.000000 0.000000
vn 0.000000 2.540000 0.000000
vn 0.000000 2.540000 0.000000
vn 0.000000 2.540000 0.000000
vn 0.000000 2.540000 0.000000
vn 0.000000 2.540000 0.000000
vn 0.000000 2.540000 0.000000
vn 0.000000 2.540000 0.000000
vn 0.000000 2.540000 0.000000
usemtl Steel_-_Satin
f 1/1/1 2/2/2 4/3/3
f 4/3/3 2/2/2 3/4/4
f 6/5/5 7/6/6 5/7/7
f 5/7/7 7/6/6 8/8/8
f 5/7/7 8/8/8 11/9/9
f 11/9/9 8/8/8 9/10/10
f 11/9/9 9/10/10 10/11/11
f 10/12/12 12/13/13 11/14/14
f 11/14/14 12/13/13 5/15/15
f 5/15/15 12/13/13 13/16/16
f 5/15/15 13/16/16 6/17/17
f 6/17/17 13/16/16 14/18/18
f 6/17/17 14/18/18 15/19/19
f 17/20/20 18/21/21 16/22/22
f 16/22/22 18/21/21 19/23/23
f 18/24/24 20/25/25 19/26/26
f 19/26/26 20/25/25 21/27/27
f 18/28/28 17/29/29 20/30/30
f 20/30/30 17/29/29 22/31/31
f 17/32/32 16/33/33 22/34/34
f 22/34/34 16/33/33 23/35/35
f 22/36/36 23/37/37 12/38/38
f 12/38/38 23/37/37 13/39/39
f 19/40/40 21/41/41 16/42/42
f 16/42/42 21/41/41 23/43/43
f 9/44/44 8/45/45 1/46/46
f 1/46/46 8/45/45 7/47/47
f 1/46/46 7/47/47 24/48/48
f 24/48/48 25/49/49 1/46/46
f 1/46/46 4/50/50 9/44/44
f 2/51/51 1/52/52 26/53/53
f 26/53/53 1/52/52 25/54/54
f 15/55/55 24/56/56 6/57/57
f 6/57/57 24/56/56 7/58/58
f 2/59/59 26/60/60 3/61/61
f 3/61/61 26/60/60 27/62/62
f 23/63/63 21/64/64 13/65/65
f 13/65/65 21/64/64 14/66/66
f 14/67/67 21/68/68 24/69/69
f 24/69/69 21/68/68 20/70/70
f 24/69/69 20/70/70 25/71/71
f 25/71/71 20/70/70 27/72/72
f 25/71/71 27/72/72 26/73/73
f 24/69/69 15/74/74 14/67/67
f 3/75/75 27/76/76 4/77/77
f 4/77/77 27/76/76 20/78/78
f 4/77/77 20/78/78 22/79/79
f 4/77/77 22/79/79 9/80/80
f 9/80/80 22/79/79 12/81/81
f 9/80/80 12/81/81 10/82/82
# 27 vertices
# 82 texture params
# 82 normals
# 50 facets

# 1 groups
